<?xml version="1.0" standalone="no"?><!DOCTYPE svg PUBLIC "-//W3C//DTD SVG 1.1//EN" "http://www.w3.org/Graphics/SVG/1.1/DTD/svg11.dtd"><svg t="1553498087693" class="icon" style="" viewBox="0 0 1024 1024" version="1.1" xmlns="http://www.w3.org/2000/svg" p-id="58442" xmlns:xlink="http://www.w3.org/1999/xlink" width="200" height="200"><defs><style type="text/css"></style></defs><path d="M638.599837 877.118131a18.594801 18.594801 0 0 0 4.606051 4.094268z m133.916686 75.74396a378.378613 378.378613 0 0 0-83.932496-55.272619l-95.532923 119.416153a516.218973 516.218973 0 0 0 179.636014-64.143534zM512.871686 853.405495a420.174266 420.174266 0 0 0-259.815431 98.774218A509.395193 509.395193 0 0 0 512.871686 1024h6.141402l116.004264-148.41722A386.22596 386.22596 0 0 0 512.871686 853.405495z" fill="#FFAA1D" p-id="58443"></path><path d="M634.505568 875.58278c1.535351 1.364756 2.558918 2.729512 4.094269 4.094269-2.558918-2.729512-4.094268-4.094268-4.094269-4.094269z m54.249053 22.006692a447.639982 447.639982 0 0 0-45.548733-18.93599c15.865289 5.629619 30.707011 12.282804 45.548733 18.93599z" fill="#5A545B" p-id="58444"></path><path d="M688.754621 897.589472a403.797194 403.797194 0 0 0-45.548733-18.93599l-4.606051-1.535351-4.094269-1.535351-116.004263 148.41722a603.392765 603.392765 0 0 0 74.720393-6.141402z" fill="#5A545B" p-id="58445"></path><path d="M1023.631635 512.216484a511.783516 511.783516 0 1 0-771.428353 440.645607A422.903778 422.903778 0 0 1 512.871686 853.405495a422.903778 422.903778 0 0 1 260.327215 98.774218A511.783516 511.783516 0 0 0 1023.631635 512.216484z" fill="#EFEFEF" p-id="58446"></path><path d="M449.922314 793.185634h124.875178v97.750652h-124.875178v-97.750652z" fill="#FDCC9B" p-id="58447"></path><path d="M449.922314 811.098058a195.671897 195.671897 0 0 0 124.704583 27.636309v-45.548733h-124.704583z" fill="#E8A16B" p-id="58448"></path><path d="M209.213467 559.300568a79.838228 79.838228 0 0 0 30.707011 65.167101 51.178352 51.178352 0 0 0 60.902238 0 85.297253 85.297253 0 0 0 0-130.334202 51.178352 51.178352 0 0 0-60.902238 0 79.838228 79.838228 0 0 0-30.707011 65.167101zM693.872456 559.300568c0 41.625059 27.295121 75.232177 60.902239 75.232177s60.902238-34.118901 60.902238-75.232177-27.295121-75.232177-60.902238-75.232177-60.902238 33.607118-60.902239 75.232177z" fill="#FFCFAE" p-id="58449"></path><path d="M721.508766 559.300568a37.701386 37.701386 0 0 0 33.265929 40.942681 37.701386 37.701386 0 0 0 33.265928-40.942681 43.501599 43.501599 0 0 0-17.05945-35.483657 27.977499 27.977499 0 0 0-33.265929 0 43.501599 43.501599 0 0 0-16.206478 35.483657zM236.849777 559.300568a43.501599 43.501599 0 0 0 17.05945 35.483657 27.977499 27.977499 0 0 0 33.265929 0 43.501599 43.501599 0 0 0 17.05945-35.483657 37.701386 37.701386 0 0 0-33.265928-40.942681 37.701386 37.701386 0 0 0-34.118901 40.942681z" fill="#EDAF85" p-id="58450"></path><path d="M754.774695 416.001183c0-110.545239-74.720393-191.407035-242.414792-191.407034s-242.414792 80.861795-242.414792 191.407034S252.715066 817.751243 512.871686 817.751243s241.903008-291.20482 241.903009-401.75006z" fill="#FFD6BA" p-id="58451"></path><path d="M368.207546 541.388145A29.001066 29.001066 0 0 0 393.455533 572.606939a31.730578 31.730578 0 0 0 0-62.437589 29.001066 29.001066 0 0 0-25.247987 31.218795z" fill="#3B2519" p-id="58452"></path><path d="M375.372515 527.56999a7.676753 7.676753 0 1 0 7.676753-8.70032 8.188536 8.188536 0 0 0-7.676753 8.70032z" fill="#FFFFFF" p-id="58453"></path><path d="M352.342257 464.108834c12.794588 7.164969 32.242361-22.518475 78.302878 3.070701 8.188536 4.606052 13.306371-39.919114-35.824846-39.919114-42.478032-0.341189-49.643001 33.777712-42.478032 36.848413z" fill="#36221E" p-id="58454"></path><path d="M607.551637 541.388145a26.442148 26.442148 0 1 0 26.100959-31.218795 29.001066 29.001066 0 0 0-26.100959 31.218795z" fill="#3B2519" p-id="58455"></path><path d="M615.228389 527.56999a7.676753 7.676753 0 1 0 7.676753-8.70032 8.188536 8.188536 0 0 0-7.676753 8.70032z" fill="#FFFFFF" p-id="58456"></path><path d="M672.889332 464.108834c-12.282804 6.653186-32.242361-22.518475-77.791094 3.070701-8.188536 4.606052-13.306371-39.919114 35.824846-39.919114 41.966248-0.341189 48.619434 33.777712 41.966248 36.848413z" fill="#36221E" p-id="58457"></path><path d="M512.871686 650.398034c-26.100959 0-41.454465-20.983124-41.454465-10.747454S478.752785 668.82224 512.871686 668.82224s40.942681-20.130152 40.942681-29.17166-15.353505 10.747454-40.942681 10.747454z" fill="#EFAC7B" p-id="58458"></path><path d="M512.871686 743.542633c-9.212103 0-14.329938-7.164969-14.329938-3.582484s2.558918 10.23567 14.329938 10.23567 14.329938-6.653186 14.329939-10.23567-5.629619 3.582485-14.329939 3.582484z" fill="#FCBC85" p-id="58459"></path><path d="M512.871686 716.929891c-40.942681 0-66.020074-17.059451-66.020073-13.306372s11.771021 22.518475 66.020073 22.518475 66.020074-17.059451 66.020074-22.518475-25.589176 13.306371-66.020074 13.306372z" fill="#F7945E" p-id="58460"></path><path d="M512.871686 853.405495a375.307911 375.307911 0 0 0-91.950438 12.282804 119.416154 119.416154 0 0 0 91.950438 47.766462 135.110848 135.110848 0 0 0 95.532923-46.060517A384.520015 384.520015 0 0 0 512.871686 853.405495z" fill="#FF8613" p-id="58461"></path><path d="M449.922314 859.717492A75.402771 75.402771 0 0 0 512.871686 887.524396a75.402771 75.402771 0 0 0 62.437589-27.124526 186.118605 186.118605 0 0 0-125.386961-0.682378z" fill="#FDCC9B" p-id="58462"></path><path d="M239.920478 315.691614C253.226849 167.274395 383.049268 102.789672 512.871686 102.789672s259.303648 64.484723 272.951209 212.901942-26.953932 226.208314-49.472407 211.878376 10.747454-167.864993-58.855104-156.093972c-108.839294 19.447774-292.398982-64.996506-292.398982-64.996507A92.121033 92.121033 0 0 1 342.277181 382.223471c-83.932497 49.131217-26.100959 124.363394-48.619434 138.693333S226.102323 464.108834 239.920478 315.691614z" fill="#342620" p-id="58463"></path><path d="M615.228389 980.498401l-31.730578-26.100959a9.553292 9.553292 0 0 1-1.53535-12.794588l11.771021-17.059451a7.847347 7.847347 0 0 1 11.771021-1.53535l31.730578 26.100959a9.553292 9.553292 0 0 1 1.53535 12.794588l-11.771021 17.059451a8.359131 8.359131 0 0 1-11.771021 1.53535z" fill="#CECEDB" p-id="58464"></path><path d="M620.17563 984.592669a9.553292 9.553292 0 0 1-7.164969-2.558917L581.109488 955.762198a11.941615 11.941615 0 0 1-2.047134-15.865289l11.771021-17.059451a10.065076 10.065076 0 0 1 15.353506-2.047134l31.730578 26.10096a11.941615 11.941615 0 0 1 2.047134 15.865289l-11.771021 17.05945a9.894481 9.894481 0 0 1-7.164969 4.606052z m-4.947241-6.141402a8.188536 8.188536 0 0 0 4.606052 1.535351 5.28843 5.28843 0 0 0 4.094268-2.558918l11.771021-17.05945a7.676753 7.676753 0 0 0-1.023567-9.723887l-31.730578-26.10096a8.188536 8.188536 0 0 0-4.606052-1.53535 5.28843 5.28843 0 0 0-4.094268 2.558918l-11.771021 17.05945a7.676753 7.676753 0 0 0 1.023567 9.723887z" fill="#37354C" p-id="58465"></path><path d="M605.504503 993.292989l-31.730578-26.100959a9.553292 9.553292 0 0 1-1.535351-12.794588l7.676753-10.23567a4.264863 4.264863 0 0 1 6.141402-1.023567l38.383764 31.730578a5.459024 5.459024 0 0 1 1.023567 6.653185l-7.676753 10.235671a8.870914 8.870914 0 0 1-12.282804 1.53535z" fill="#CECEDB" p-id="58466"></path><path d="M611.134121 997.387257a9.553292 9.553292 0 0 1-7.164969-2.558917l-31.730578-26.10096a11.941615 11.941615 0 0 1-2.047134-15.865289l7.676753-10.23567a5.28843 5.28843 0 0 1 4.606051-2.558918 9.894481 9.894481 0 0 1 5.117836 1.535351L625.805249 972.821648a7.676753 7.676753 0 0 1 1.023567 9.723887l-7.16497 10.235671a9.894481 9.894481 0 0 1-7.164969 4.606051 3.923674 3.923674 0 0 0-1.364756 0z m-4.606051-6.141402a8.188536 8.188536 0 0 0 4.606051 1.535351A5.28843 5.28843 0 0 0 615.228389 989.881099l7.676753-10.23567a3.070701 3.070701 0 0 0 0-3.582485l-38.383764-31.730578a1.87654 1.87654 0 0 0-1.53535 0 1.023567 1.023567 0 0 0-1.023567 1.023567l-7.164969 10.23567a7.676753 7.676753 0 0 0 1.023567 9.723887z" fill="#37354C" p-id="58467"></path><path d="M574.797492 783.461748c-27.806904 0-26.100959-21.494908-61.925806-21.494908s-34.118901 21.494908-61.925805 21.494908c-62.437589 0-132.381336-70.114342-123.169233-54.760836 12.794588 20.983124 55.784403 96.215301 185.606822 96.2153s172.812234-75.232177 185.606821-96.2153c8.188536-15.353505-62.437589 54.760836-124.192799 54.760836z" fill="#5B504D" p-id="58468"></path></svg>