<?xml version="1.0" standalone="no"?><!DOCTYPE svg PUBLIC "-//W3C//DTD SVG 1.1//EN" "http://www.w3.org/Graphics/SVG/1.1/DTD/svg11.dtd"><svg t="1552380548051" class="icon" style="" viewBox="0 0 1277 1024" version="1.1" xmlns="http://www.w3.org/2000/svg" p-id="7533" xmlns:xlink="http://www.w3.org/1999/xlink" width="249.4140625" height="200"><defs><style type="text/css"></style></defs><path d="M1255.048841 371.866779h-642.563132a22.785927 22.785927 0 1 1 0-45.571853H1193.982557a210.086244 210.086244 0 0 1-51.040476-140.361309A210.086244 210.086244 0 0 1 1193.982557 45.572309H292.571298a59.243409 59.243409 0 0 0-59.243409 59.243409v161.78008a59.243409 59.243409 0 0 0 59.243409 59.243409h56.509098a22.785927 22.785927 0 0 1 0 45.571853H292.571298a105.270981 105.270981 0 0 1-104.815262-104.815262V104.815718A105.270981 105.270981 0 0 1 292.571298 0.000456h962.477543a22.785927 22.785927 0 0 1 10.937244 42.837542 165.881546 165.881546 0 0 0-77.927869 143.095619 166.792983 166.792983 0 0 0 77.927869 143.09562 22.785927 22.785927 0 0 1-10.937244 42.837542z" p-id="7534"></path><path d="M1067.748523 697.70553H104.815263A105.270981 105.270981 0 0 1 0 592.434549V431.110188a105.270981 105.270981 0 0 1 104.815263-104.815262h236.973637a22.785927 22.785927 0 1 1 0 45.571853H104.815263A59.243409 59.243409 0 0 0 45.571853 431.110188V592.434549a59.243409 59.243409 0 0 0 59.24341 59.243409h901.411258A210.086244 210.086244 0 0 1 957.00892 511.772369a211.453399 211.453399 0 0 1 101.625233-182.287414 22.785927 22.785927 0 0 1 21.874489 40.103231 169.983013 169.983013 0 0 0 0 286.191239 22.785927 22.785927 0 0 1-10.937244 42.837542z" p-id="7535"></path><path d="M1224.515699 1024H261.582438a105.270981 105.270981 0 0 1-104.815263-104.815263v-162.235798a105.270981 105.270981 0 0 1 104.815263-104.815262h962.933261a22.785927 22.785927 0 0 1 10.937245 42.837542 169.983013 169.983013 0 0 0 0 286.191239 22.785927 22.785927 0 0 1-10.937245 42.837542zM261.582438 697.70553a59.243409 59.243409 0 0 0-59.243409 59.243409v161.78008a59.243409 59.243409 0 0 0 59.243409 59.243409h901.411259a217.833459 217.833459 0 0 1 0-280.722616zM592.434093 595.16886a22.785927 22.785927 0 0 1-14.127274-5.012904l-107.549574-86.130802L364.574827 590.155956a22.785927 22.785927 0 0 1-36.913202-17.773022V182.287869A85.675084 85.675084 0 0 1 410.14668 94.789911h118.0311A85.675084 85.675084 0 0 1 615.675738 182.287869v391.46222a22.785927 22.785927 0 0 1-22.785926 22.785927z m-121.676848-143.095619a22.785927 22.785927 0 0 1 14.127274 5.012904l84.763648 67.902061V182.287869a40.103231 40.103231 0 0 0-40.103231-40.103231H410.14668a40.103231 40.103231 0 0 0-38.280357 40.103231v344.067493L455.718533 455.718989a22.785927 22.785927 0 0 1 15.038712-3.645748z" p-id="7536"></path></svg>