<?xml version="1.0" standalone="no"?><!DOCTYPE svg PUBLIC "-//W3C//DTD SVG 1.1//EN" "http://www.w3.org/Graphics/SVG/1.1/DTD/svg11.dtd"><svg t="1553497903774" class="icon" style="" viewBox="0 0 1024 1024" version="1.1" xmlns="http://www.w3.org/2000/svg" p-id="35817" xmlns:xlink="http://www.w3.org/1999/xlink" width="200" height="200"><defs><style type="text/css"></style></defs><path d="M519.94135 510.646651m-485.162835 0a485.162835 485.162835 0 1 0 970.325669 0 485.162835 485.162835 0 1 0-970.325669 0Z" fill="#6F76B6" p-id="35818"></path><path d="M309.380679 893.108174c-108.063638 28.650142-71.497681-312.904494-70.220936-394.003291 2.859907-186.608947 77.421774-372.809336 280.883746-372.809337s277.87063 185.99611 280.883747 372.809337c1.225675 81.098798 37.842701 422.653434-70.169867 394.003291" fill="#3B261E" p-id="35819"></path><path d="M403.757618 429.241434H341.350357a7.251908 7.251908 0 0 0-7.251908 7.251908v56.176749c0 78.34103 57.759912 144.323176 129.615081 164.648945a11.28642 11.28642 0 0 1 8.069024 10.980001v67.4121h96.266521v-67.4121a11.388559 11.388559 0 0 1 8.069024-10.980001c71.855169-20.427909 129.615082-86.307915 129.615081-164.648945v-56.176749a7.200838 7.200838 0 0 0-7.251907-7.251908z" fill="#F1D5BF" p-id="35820"></path><path d="M593.328612 715.640716l-72.059448 17.97656-74.766147-17.97656a216.637973 216.637973 0 0 0-214.493042 185.383273A482.558276 482.558276 0 0 0 519.94135 995.860556a482.507207 482.507207 0 0 0 287.676026-94.581218 216.586903 216.586903 0 0 0-214.288764-185.638622z" fill="#F4BB3E" p-id="35821"></path><path d="M522.18842 623.561917a31.714328 31.714328 0 0 1-31.918608-31.663259v-3.728093h63.377587v3.728093a31.714328 31.714328 0 0 1-31.458979 31.663259z" fill="#DA854B" p-id="35822"></path><path d="M749.346766 344.567752a235.584859 235.584859 0 0 0-26.556282-29.875816c-1.991721-1.889582-3.983442-3.728093-6.077303-5.566606A292.170166 292.170166 0 0 0 566.87447 240.487557c-2.859907-0.459628-5.719814-0.868186-8.630791-1.174605a326.131565 326.131565 0 0 0-148.613037 15.320932c-2.29814 0.766047-4.596279 1.634233-6.894419 2.502418A285.990724 285.990724 0 0 0 354.832776 280.883746c-1.889582 1.123535-3.779163 2.29814-5.617675 3.523815a250.548302 250.548302 0 0 0-65.573587 60.160191 217.25081 217.25081 0 0 1 22.164281-43.562515c1.736372-2.655628 3.523814-5.106977 5.464466-7.915815a241.91751 241.91751 0 0 1 100.403172-80.179542c2.859907-1.276744 5.821954-2.451349 8.784001-3.574884a258.157698 258.157698 0 0 1 46.779911-13.48242c1.481023-0.255349 2.962047-0.561767 4.44307-0.766047a266.941699 266.941699 0 0 1 89.218892 0c2.859907 0.459628 5.668745 0.970326 8.477582 1.583163a253.612488 253.612488 0 0 1 72.774425 26.556282c2.808837 1.532093 5.617675 3.115256 8.324373 4.800558a238.649045 238.649045 0 0 1 49.690888 39.425864c2.24707 2.29814 4.392 4.596279 6.434792 6.945489a222.255648 222.255648 0 0 1 42.745399 70.169867z" fill="#F45466" p-id="35823"></path><path d="M434.808039 768.957558l-0.510697-42.694329a20.427909 20.427909 0 0 1 29.773677-18.436188l40.855818 20.836467a20.427909 20.427909 0 0 1 0.459628 36.208468L464.990275 786.47449a20.427909 20.427909 0 0 1-30.182236-17.516932zM606.913171 767.067977l-0.510697-42.081493a20.427909 20.427909 0 0 0-29.773677-17.516931l-39.732283 21.551443a20.427909 20.427909 0 0 0 0.408558 35.748841l40.24298 20.427909a20.427909 20.427909 0 0 0 29.365119-18.129769z" fill="#4DAFD1" p-id="35824"></path><path d="M497.332947 746.953099a20.683258 23.389956 89.33 1 0 46.776713-0.547018 20.683258 23.389956 89.33 1 0-46.776713 0.547018Z" fill="#F4ED58" p-id="35825"></path><path d="M478.268416 477.859857s4.085582-8.98828-2.40028-11.235349c-30.641863-10.213954-59.853773-5.668745-66.390703 6.383721 31.765398-10.520373 68.790983 4.851628 68.790983 4.851628zM572.900703 480.055858s-3.421675-9.294699 3.166326-11.031071c31.101491-8.171164 57.351354-5.975163 65.726797 11.031071-23.185677-14.861304-68.893123 0-68.893123 0z" fill="#452519" opacity=".35" p-id="35826"></path><path d="M431.284225 519.78814a28.496933 21.398235 90 1 0 42.796469 0 28.496933 21.398235 90 1 0-42.796469 0Z" fill="#3B261E" p-id="35827"></path><path d="M437.00404 521.064885a10.009675 7.507256 90 1 0 15.014513 0 10.009675 7.507256 90 1 0-15.014513 0Z" fill="#FFFFFF" opacity=".69" p-id="35828"></path><path d="M572.951773 519.78814a28.496933 21.398235 90 1 0 42.796469 0 28.496933 21.398235 90 1 0-42.796469 0Z" fill="#3B261E" p-id="35829"></path><path d="M579.080146 521.064885a10.162885 7.609396 90 1 0 15.218792 0 10.162885 7.609396 90 1 0-15.218792 0Z" fill="#FFFFFF" opacity=".69" p-id="35830"></path><path d="M421.27455 211.939554a4.851628 4.851628 0 0 1-9.601117 0.970326c2.859907-1.276744 5.821954-2.451349 8.784001-3.574884a4.800559 4.800559 0 0 1 0.817116 2.604558z" fill="#FFFFFF" opacity=".36" p-id="35831"></path><path d="M366.936312 248.65872m-4.851628 0a4.851628 4.851628 0 1 0 9.703257 0 4.851628 4.851628 0 1 0-9.703257 0Z" fill="#FFFFFF" opacity=".36" p-id="35832"></path><path d="M355.037056 279.402723a3.421675 3.421675 0 0 1 0 1.225675c-1.889582 1.123535-3.779163 2.29814-5.617675 3.523814a4.851628 4.851628 0 1 1 5.821954-4.749489zM313.057703 296.817515a5.106977 5.106977 0 0 1-4.851628 5.106978 4.340931 4.340931 0 0 1-2.40028-0.663907c1.736372-2.655628 3.523814-5.106977 5.464466-7.915815a5.106977 5.106977 0 0 1 1.787442 3.472744zM419.180689 250.241883a3.166326 3.166326 0 0 1-0.408558 1.685303c-2.29814 0.714977-4.647349 1.481023-6.945489 2.298139a4.596279 4.596279 0 0 1-2.349209-4.238791 5.106977 5.106977 0 0 1 9.703256 0.255349z" fill="#FFFFFF" opacity=".36" p-id="35833"></path><path d="M454.469902 225.421974m-4.851629 0a4.851628 4.851628 0 1 0 9.703257 0 4.851628 4.851628 0 1 0-9.703257 0Z" fill="#FFFFFF" opacity=".36" p-id="35834"></path><path d="M488.941998 197.793227a5.106977 5.106977 0 1 1-9.754327-0.459628 4.749489 4.749489 0 0 1 2.093861-3.728093l4.44307-0.561768a4.800559 4.800559 0 0 1 3.217396 4.749489z" fill="#FFFFFF" opacity=".36" p-id="35835"></path><path d="M509.829535 220.110718m-4.851629 0a4.851628 4.851628 0 1 0 9.703257 0 4.851628 4.851628 0 1 0-9.703257 0Z" fill="#FFFFFF" opacity=".36" p-id="35836"></path><path d="M601.448706 229.865044m-4.851629 0a4.851628 4.851628 0 1 0 9.703257 0 4.851628 4.851628 0 1 0-9.703257 0Z" fill="#FFFFFF" opacity=".36" p-id="35837"></path><path d="M650.526757 227.924393a5.106977 5.106977 0 0 1-2.40028 1.685302 5.106977 5.106977 0 0 1-6.077302-3.217395 4.49414 4.49414 0 0 1 0-3.268466c2.962047 1.583163 5.770884 3.115256 8.477582 4.800559z" fill="#FFFFFF" opacity=".36" p-id="35838"></path><path d="M658.187223 259.843m-4.851629 0a4.851628 4.851628 0 1 0 9.703257 0 4.851628 4.851628 0 1 0-9.703257 0Z" fill="#FFFFFF" opacity=".36" p-id="35839"></path><path d="M706.652436 274.295746a4.596279 4.596279 0 0 1-2.451349 1.787442 5.106977 5.106977 0 0 1-6.077303-3.217396 4.749489 4.749489 0 0 1 2.093861-5.515535c2.24707 2.29814 4.54521 4.596279 6.434791 6.945489zM722.892624 314.691936c-1.991721-1.889582-3.983442-3.728093-6.077303-5.566606a4.749489 4.749489 0 0 1 3.319535-3.728093 5.106977 5.106977 0 0 1 6.077303 3.217396 5.106977 5.106977 0 0 1-3.319535 6.077303z" fill="#FFFFFF" opacity=".36" p-id="35840"></path><path d="M546.80405 221.693881m-4.851629 0a4.851628 4.851628 0 1 0 9.703257 0 4.851628 4.851628 0 1 0-9.703257 0Z" fill="#FFFFFF" opacity=".36" p-id="35841"></path><path d="M567.640517 201.878809a4.851628 4.851628 0 0 1-6.69014-6.894419c2.859907 0.459628 5.668745 0.970326 8.477582 1.583163a4.749489 4.749489 0 0 1-1.787442 5.311256z" fill="#FFFFFF" opacity=".36" p-id="35842"></path></svg>