<?xml version="1.0" standalone="no"?><!DOCTYPE svg PUBLIC "-//W3C//DTD SVG 1.1//EN" "http://www.w3.org/Graphics/SVG/1.1/DTD/svg11.dtd"><svg t="1561033643085" class="icon" viewBox="0 0 1024 1024" version="1.1" xmlns="http://www.w3.org/2000/svg" p-id="6226" xmlns:xlink="http://www.w3.org/1999/xlink" width="200" height="200"><defs><style type="text/css"></style></defs><path d="M785.9 886.5H241.5c-3.3 0-6.1-2.7-6.1-6.1V324.8c0-3.3 2.7-6.1 6.1-6.1h544.3c3.3 0 6.1 2.7 6.1 6.1v555.7c0 3.3-2.7 6-6 6z" fill="#FCEE21" p-id="6227"></path><path d="M791.9 400.8c-125 330.1-351.5 445.7-482.2 485.7h454.6c15.2 0 27.6-12.4 27.6-27.6V400.8z" fill="#F8B62D" p-id="6228"></path><path d="M271.2 651.5l129.4-150.6 112.9 116.6 147.4-156.6" fill="#FCEE21" p-id="6229"></path><path d="M271.2 662c-2.4 0-4.9-0.8-6.8-2.5-4.4-3.8-4.9-10.4-1.1-14.8l129.4-150.6c1.9-2.2 4.7-3.6 7.6-3.6 3-0.1 5.8 1.1 7.9 3.2l105.3 108.7 139.8-148.6c4-4.2 10.6-4.4 14.8-0.5 4.2 4 4.4 10.6 0.5 14.8L521.2 624.7c-2 2.1-4.7 3.3-7.6 3.3-3 0.2-5.6-1.1-7.6-3.2L401 516.5 279.2 658.4c-2.1 2.4-5 3.6-8 3.6z" fill="#3E3A39" p-id="6230"></path><path d="M684.7 435.6m-35.1 0a35.1 35.1 0 1 0 70.2 0 35.1 35.1 0 1 0-70.2 0Z" fill="#F8B62D" p-id="6231"></path><path d="M684.7 481.2c-25.1 0-45.6-20.5-45.6-45.6s20.5-45.6 45.6-45.6 45.6 20.5 45.6 45.6-20.5 45.6-45.6 45.6z m0-70.3c-13.6 0-24.6 11.1-24.6 24.6s11 24.6 24.6 24.6c13.6 0 24.6-11 24.6-24.6s-11-24.6-24.6-24.6z" fill="#3E3A39" p-id="6232"></path><path d="M717.2 183.8c-15.7 0-28.4-12.8-28.4-28.4 0-15.7 12.8-28.4 28.4-28.4 15.7 0 28.4 12.8 28.4 28.4 0.1 15.7-12.7 28.4-28.4 28.4z m0-42.8c-8 0-14.4 6.5-14.4 14.4 0 8 6.5 14.5 14.4 14.5s14.5-6.5 14.5-14.5-6.5-14.4-14.5-14.4z" fill="#47B7F8" p-id="6233"></path><path d="M256.4 229.2H244v-12.4c0-3.3-2.7-6-6-6s-6 2.7-6 6v12.4h-12.4c-3.3 0-6 2.7-6 6s2.7 6 6 6H232v12.4c0 3.3 2.7 6 6 6s6-2.7 6-6v-12.4h12.4c3.3 0 6-2.7 6-6 0-3.4-2.7-6-6-6zM884.8 350h-12.4v-12.4c0-3.3-2.7-6-6-6s-6 2.7-6 6V350H848c-3.3 0-6 2.7-6 6s2.7 6 6 6h12.4v12.4c0 3.3 2.7 6 6 6s6-2.7 6-6V362h12.4c3.3 0 6-2.7 6-6s-2.7-6-6-6z" fill="#F7E42F" p-id="6234"></path><path d="M114.4 513.9H99.9v-14.5c0-3.9-3.1-7-7-7s-7 3.1-7 7v14.5H71.5c-3.9 0-7 3.1-7 7s3.1 7 7 7H86v14.5c0 3.9 3.1 7 7 7s7-3.1 7-7v-14.5h14.4c3.9 0 7-3.1 7-7s-3.2-7-7-7z" fill="#F8B62D" p-id="6235"></path><path d="M351.1 165.9m-10.5 0a10.5 10.5 0 1 0 21 0 10.5 10.5 0 1 0-21 0Z" fill="#F8B62D" p-id="6236"></path><path d="M819.9 221.2m-14 0a14 14 0 1 0 28 0 14 14 0 1 0-28 0Z" fill="#F8B62D" p-id="6237"></path><path d="M114.4 165.9m-14 0a14 14 0 1 0 28 0 14 14 0 1 0-28 0Z" fill="#F7E42F" p-id="6238"></path><path d="M127.9 356.1c-15.7 0-28.4-12.8-28.4-28.4 0-15.7 12.8-28.4 28.4-28.4s28.4 12.8 28.4 28.4c0 15.6-12.7 28.4-28.4 28.4z m0-42.9c-8 0-14.4 6.5-14.4 14.4 0 8 6.5 14.5 14.4 14.5s14.5-6.5 14.5-14.5c0-7.9-6.5-14.4-14.5-14.4z" fill="#F8B62D" p-id="6239"></path><path d="M510 161.6c-1.5-1.5-4-1.5-5.5 0-0.7 0.7-1.1 1.7-1.1 2.7 0 1 0.4 2 1.1 2.7l12.4 12.4c0.7 0.7 1.7 1.1 2.7 1.1 1 0 2-0.4 2.7-1.1 1.5-1.5 1.5-4 0-5.5L510 161.6zM542.8 194.4c-0.7-0.7-1.7-1.1-2.7-1.1-1 0-2 0.4-2.7 1.1-1.5 1.5-1.5 4 0 5.5l12.4 12.4c0.7 0.7 1.7 1.1 2.7 1.1 1 0 2-0.4 2.7-1.1 0.7-0.7 1.1-1.7 1.1-2.7 0-1-0.4-2-1.1-2.7l-12.4-12.5zM540.1 180.6c1 0 2-0.4 2.7-1.1l12.4-12.4c0.7-0.7 1.1-1.7 1.1-2.7 0-1-0.4-2-1.1-2.7-1.5-1.5-4-1.5-5.5 0L537.4 174c-1.5 1.5-1.5 4 0 5.5 0.7 0.7 1.7 1.1 2.7 1.1zM517 194.4l-12.4 12.4c-0.7 0.7-1.1 1.7-1.1 2.7 0 1 0.4 2 1.1 2.7 0.7 0.7 1.7 1.1 2.7 1.1 1 0 2-0.4 2.7-1.1l12.4-12.4c1.5-1.5 1.5-4 0-5.5-1.4-1.4-3.9-1.4-5.4 0.1zM519.4 187c0-2.1-1.7-3.9-3.9-3.9h-17.6c-2.1 0-3.9 1.7-3.9 3.9s1.7 3.9 3.9 3.9h17.6c2.2-0.1 3.9-1.8 3.9-3.9zM561.9 183.1h-17.6c-2.1 0-3.9 1.7-3.9 3.9s1.7 3.9 3.9 3.9h17.6c2.1 0 3.9-1.7 3.9-3.9s-1.8-3.9-3.9-3.9zM529.9 151.1c-2.1 0-3.9 1.7-3.9 3.9v17.6c0 2.1 1.7 3.9 3.9 3.9 2.1 0 3.9-1.7 3.9-3.9V155c0-2.2-1.7-3.9-3.9-3.9zM529.9 197.5c-2.1 0-3.9 1.7-3.9 3.9V219c0 2.1 1.7 3.9 3.9 3.9 2.1 0 3.9-1.7 3.9-3.9v-17.6c0-2.2-1.7-3.9-3.9-3.9z" fill="#FAEE00" p-id="6240"></path><path d="M903.8 524c-1.5-1.5-4-1.5-5.5 0-0.7 0.7-1.1 1.7-1.1 2.7s0.4 2 1.1 2.7l12.4 12.4c0.7 0.7 1.7 1.1 2.7 1.1s2-0.4 2.7-1.1c1.5-1.5 1.5-4 0-5.5L903.8 524zM936.6 556.8c-0.7-0.7-1.7-1.1-2.7-1.1-1 0-2 0.4-2.7 1.1-1.5 1.5-1.5 4 0 5.5l12.4 12.4c0.7 0.7 1.7 1.1 2.7 1.1 1 0 2-0.4 2.7-1.1 0.7-0.7 1.1-1.7 1.1-2.7s-0.4-2-1.1-2.7l-12.4-12.5zM933.8 543c1 0 2-0.4 2.7-1.1l12.4-12.4c0.7-0.7 1.1-1.7 1.1-2.7s-0.4-2-1.1-2.7c-1.5-1.5-4-1.5-5.5 0L931 536.5c-1.5 1.5-1.5 4 0 5.5 0.8 0.6 1.8 1 2.8 1zM910.7 556.8l-12.4 12.4c-0.7 0.7-1.1 1.7-1.1 2.7s0.4 2 1.1 2.7c0.7 0.7 1.7 1.1 2.7 1.1 1 0 2-0.4 2.7-1.1l12.4-12.4c1.5-1.5 1.5-4 0-5.5-1.4-1.4-3.9-1.4-5.4 0.1zM913.1 549.3c0-2.1-1.7-3.9-3.9-3.9h-17.6c-2.1 0-3.9 1.7-3.9 3.9 0 2.1 1.7 3.9 3.9 3.9h17.6c2.2 0 3.9-1.8 3.9-3.9zM955.6 545.4H938c-2.1 0-3.9 1.7-3.9 3.9 0 2.1 1.7 3.9 3.9 3.9h17.6c2.1 0 3.9-1.7 3.9-3.9 0-2.1-1.7-3.9-3.9-3.9zM923.7 513.5c-2.1 0-3.9 1.7-3.9 3.9V535c0 2.1 1.7 3.9 3.9 3.9 2.1 0 3.9-1.7 3.9-3.9v-17.6c-0.1-2.2-1.8-3.9-3.9-3.9zM923.7 559.8c-2.1 0-3.9 1.7-3.9 3.9v17.6c0 2.1 1.7 3.9 3.9 3.9 2.1 0 3.9-1.7 3.9-3.9v-17.6c-0.1-2.1-1.8-3.9-3.9-3.9z" fill="#F8B62D" p-id="6241"></path><path d="M899.8 897h-25c-5.8 0-10.5-4.7-10.5-10.5S869 876 874.8 876h25c5.8 0 10.5 4.7 10.5 10.5s-4.7 10.5-10.5 10.5zM127.4 897h-32c-5.8 0-10.5-4.7-10.5-10.5S89.6 876 95.4 876h32c5.8 0 10.5 4.7 10.5 10.5s-4.7 10.5-10.5 10.5z" fill="#3E3A39" p-id="6242"></path><path d="M834.7 897H160.5c-5.8 0-10.5-4.7-10.5-10.5s4.7-10.5 10.5-10.5h674.3c5.8 0 10.5 4.7 10.5 10.5s-4.8 10.5-10.6 10.5z" fill="#3E3A39" p-id="6243"></path><path d="M275.7 393.5c-5.8 0-10.5-4.7-10.5-10.5v-26.5c0-5.8 4.7-10.5 10.5-10.5s10.5 4.7 10.5 10.5V383c0 5.8-4.7 10.5-10.5 10.5z" fill="#FFFFFF" p-id="6244"></path><path d="M275.7 546.7c-5.8 0-10.5-4.7-10.5-10.5v-99.6c0-5.8 4.7-10.5 10.5-10.5s10.5 4.7 10.5 10.5v99.6c0 5.8-4.7 10.5-10.5 10.5z" fill="#FFFFFF" p-id="6245"></path><path d="M714 773.6v4.6c0 10.7-8.8 19.5-19.5 19.5H335.6c-10.7 0-19.5-8.8-19.5-19.5v-4.6c0-10.7 8.8-19.5 19.5-19.5h358.9c10.7 0 19.5 8.8 19.5 19.5z" fill="#FFFFFF" p-id="6246"></path><path d="M694.5 801.3H294.6c-16.5 0-30-13.5-30-30v-13.6c0-16.5 13.5-30 30-30h399.9c16.5 0 30 13.5 30 30v13.6c0 16.5-13.5 30-30 30z m-399.9-52.7c-5 0-9 4-9 9v13.6c0 5 4 9 9 9h399.9c5 0 9-4 9-9v-13.6c0-5-4-9-9-9H294.6z" fill="#3E3A39" p-id="6247"></path><path d="M749.5 897H241.4c-29.2 0-52.9-23.7-52.9-52.9V484.4c0-5.8 4.7-10.5 10.5-10.5s10.5 4.7 10.5 10.5v359.8c0 17.6 14.3 31.9 31.9 31.9h508.1c17.6 0 31.9-14.3 31.9-31.9V323.9c0-17.6-14.3-31.9-31.9-31.9H241.4c-17.6 0-31.9 14.3-31.9 31.9V369c0 5.8-4.7 10.5-10.5 10.5s-10.5-4.7-10.5-10.5v-45.1c0-29.2 23.7-52.9 52.9-52.9h508.1c29.2 0 52.9 23.7 52.9 52.9v520.3c0 29.1-23.7 52.8-52.9 52.8z" fill="#3E3A39" p-id="6248"></path><path d="M199 458.2c-5.8 0-10.5-4.7-10.5-10.5v-42c0-5.8 4.7-10.5 10.5-10.5s10.5 4.7 10.5 10.5v42c0 5.8-4.7 10.5-10.5 10.5z" fill="#3E3A39" p-id="6249"></path></svg>