<?xml version="1.0" standalone="no"?><!DOCTYPE svg PUBLIC "-//W3C//DTD SVG 1.1//EN" "http://www.w3.org/Graphics/SVG/1.1/DTD/svg11.dtd"><svg t="1552377932053" class="icon" style="" viewBox="0 0 1024 1024" version="1.1" xmlns="http://www.w3.org/2000/svg" p-id="3610" xmlns:xlink="http://www.w3.org/1999/xlink" width="200" height="200"><defs><style type="text/css"></style></defs><path d="M809.6 256h-576c-19.2 0-32-12.8-32-32s12.8-32 32-32h576c19.2 0 32 12.8 32 32s-16 32-32 32zM809.6 448h-320c-19.2 0-32-12.8-32-32s12.8-32 32-32h320c19.2 0 32 12.8 32 32s-16 32-32 32zM809.6 640h-320c-19.2 0-32-12.8-32-32s12.8-32 32-32h320c19.2 0 32 12.8 32 32s-16 32-32 32zM809.6 832h-576c-19.2 0-32-12.8-32-32s12.8-32 32-32h576c19.2 0 32 12.8 32 32s-16 32-32 32zM220.8 505.6l163.2-115.2c6.4-6.4 16-3.2 22.4 3.2 3.2 3.2 3.2 6.4 3.2 9.6v233.6c0 9.6-6.4 16-16 16-3.2 0-6.4 0-9.6-3.2l-160-115.2c-6.4-3.2-9.6-16-6.4-22.4l3.2-6.4z" p-id="3611"></path></svg>