<?xml version="1.0" standalone="no"?><!DOCTYPE svg PUBLIC "-//W3C//DTD SVG 1.1//EN" "http://www.w3.org/Graphics/SVG/1.1/DTD/svg11.dtd"><svg t="1553248385276" class="icon" style="" viewBox="0 0 1024 1024" version="1.1" xmlns="http://www.w3.org/2000/svg" p-id="3442" xmlns:xlink="http://www.w3.org/1999/xlink" width="200" height="200"><defs><style type="text/css"></style></defs><path d="M896.025729 0H128.025729A127.974271 127.974271 0 0 0 0 127.922814v768.051457A127.974271 127.974271 0 0 0 127.922814 1024h768.102915A127.974271 127.974271 0 0 0 1024 896.025729V127.974271A127.974271 127.974271 0 0 0 896.025729 0zM895.356784 438.261709a42.65809 42.65809 0 0 1-11.680804 23.413065l-155.298091 159.003015 36.843418 225.794573a42.65809 42.65809 0 0 1-62.726433 44.253266L512 785.341106l-190.700704 105.281608a42.65809 42.65809 0 0 1-62.726432-44.253267l36.843417-225.794573-155.246633-158.951557a42.65809 42.65809 0 0 1 24.08201-72.040201l212.981709-32.521005L473.407035 152.46794a42.65809 42.65809 0 0 1 77.18593 0l96.173668 204.645628 212.981709 32.521005a42.65809 42.65809 0 0 1 35.608442 48.627136z" p-id="3443"></path></svg>