<?xml version="1.0" standalone="no"?><!DOCTYPE svg PUBLIC "-//W3C//DTD SVG 1.1//EN" "http://www.w3.org/Graphics/SVG/1.1/DTD/svg11.dtd"><svg t="1552295561117" class="icon" style="" viewBox="0 0 2375 1024" version="1.1" xmlns="http://www.w3.org/2000/svg" p-id="2834" xmlns:xlink="http://www.w3.org/1999/xlink" width="463.8671875" height="200"><defs><style type="text/css"></style></defs><path d="M1179.333014 57.04708c-248.611372 0-450.092626 201.481254-450.092627 450.092627 0 112.228593 41.042478 214.834788 108.988398 293.679547 21.306741 1.571004 135.990028 5.989452 164.464474-74.91725 31.420079-89.350849-18.655672-141.390354-52.530444-164.464474l10.800652-18.655672s78.059258 48.602934 71.186116 142.86317c-6.774954 92.591044-62.74197 134.026273-175.756065 135.008151 81.790392 84.245086 196.277304 136.579154 322.939496 136.579154 162.500719 0 304.971138-86.110653 384.012273-215.325726-13.353533-21.208553-41.926167-38.391409-53.11957-45.166363-4.222073-2.552881-9.524211-5.400326-15.611852-8.640522-32.500144-17.477419-86.994343-46.639179-120.967303-110.657589-19.048423-35.838527-24.546936-77.96107-15.808227-121.654617 6.578579-32.794707 18.655672-54.88695 19.146611-55.868828l15.415476 8.542334c-0.098188 0.196375-11.487966 21.012178-17.379231 51.254003-7.85502 39.962413-3.04382 76.782817 14.237223 109.282961 31.518266 59.305398 81.00489 85.81609 113.70141 103.391697 6.284016 3.338383 11.782529 6.284016 16.397353 9.13146 29.652699 17.87017 45.068175 32.401956 53.806885 43.497171 35.838527-64.607537 56.261578-138.93566 56.261578-217.976795 0-248.513184-201.481254-449.994439-450.092626-449.994439zM883.493336 525.991754c5.891265 0 14.139035 0.88369 14.139035 0.883689l-0.392751 5.989453c-1.963755-0.981877-13.746284-1.963755-13.746284-1.963755v-4.909387z m10.997027 38.096845l-1.767379-4.516636c5.498514-2.16013 13.451721-4.418449 13.451721-4.418449l1.865567 5.694889c-2.258318-0.196375-13.549909 3.240196-13.549909 3.240196z m29.456324-47.91562s-8.247771-7.462269-13.05897-11.586154c1.276441-1.472816 1.963755-2.356506 3.632947-4.222073 6.480391 4.516636 13.05897 11.095215 13.05897 11.095215l-3.632947 4.713012z m473.264934-152.780132l-5.793077-0.785502c0.490939-3.632947 4.320261-16.10279 4.8112-17.477419l5.596701 1.76738c-1.178253 3.632947-4.222073 13.746284-4.614824 16.495541z m20.521239 2.356506l-4.418448-3.829322c4.222073-4.909387 17.182855-13.648097 17.771982-14.040848l3.240195 4.909387c-3.534759 2.356506-13.451721 9.327836-16.593729 12.960783z m4.025698 27.099818l-2.847445-5.203951c4.222073-2.258318 20.0303-3.534759 23.172308-3.731134l0.392751 5.891264c-8.542334 0.687314-18.655672 1.963755-20.717614 3.043821z" fill="#F1F2F3" p-id="2835"></path><path d="M1002.791447 725.803816c0.196375-0.490939 0.294563-0.88369 0.490939-1.374628-95.045738 7.953207-166.919168 20.226676-201.874006 26.903442 11.193403 17.281043 23.565059 33.776585 37.016781 49.388436 21.208553 1.571004 135.89184 6.08764 164.366286-74.91725z" fill="#C1C1C1" p-id="2836"></path><path d="M1026.16013 722.661808c-18.164733 66.669479-73.051683 97.009493-169.766612 97.893183 81.790392 84.245086 196.277304 136.579154 322.939496 136.579154 157.885895 0 296.723368-81.299453 377.139131-204.328699-195.393614-40.747914-386.368779-40.747914-530.312015-30.143638z" fill="#C1C1C1" p-id="2837"></path><path d="M1028.320261 793.847924a153.663822 29.259948 0 1 0 307.327644 0 153.663822 29.259948 0 1 0-307.327644 0Z" fill="#B1B2B3" p-id="2838"></path><path d="M1303.442324 501.935756s28.769009-24.055998 46.442804-17.182855-12.764407 56.948893-20.619427 68.731422-31.911017 53.512321-39.766037 59.403586c0 0-2.945632 5.891265-0.981877 12.764407s28.474446 81.495829 15.710039 151.209128c0 0-7.85502 23.565059-28.474446 8.836897s-42.220731-65.78579-79.532074-55.967015-34.365711 50.07575-33.383834 55.967015-9.818775 32.401956-36.329465 11.78253-38.293221-50.07575-22.583182-150.227251c0 0 4.909387-8.836897-4.909387-7.85502s-68.731422 0-81.495829-11.782529-3.92751-22.583182 9.818774-23.565059 63.625659-2.16013 70.106051-20.226676c6.480391-18.066545 150.227251-94.554799 205.99789-81.88858z" fill="#E5DFD7" p-id="2839"></path><path d="M1181.787707 492.60792m-118.708984 0a118.708985 118.708985 0 1 0 237.417969 0 118.708985 118.708985 0 1 0-237.417969 0Z" fill="#D5CBC0" p-id="2840"></path><path d="M1161.855595 453.823761m-148.754435 0a148.754435 148.754435 0 1 0 297.50887 0 148.754435 148.754435 0 1 0-297.50887 0Z" fill="#E5DFD7" p-id="2841"></path><path d="M948.788187 549.949564s-29.947262 1.374628-42.71167 5.400326l0.981878 6.185828s39.962413-2.847445 48.701122-0.981878l-6.97133-10.604276z" fill="#D5CBC0" p-id="2842"></path><path d="M948.100873 549.065874s-29.947262 1.669192-42.71167 5.793077l1.080065 6.185828s39.962413-3.240196 48.701122-1.472816l-7.069517-10.506089z" fill="#E5DFD7" p-id="2843"></path><path d="M897.828747 526.973631l-0.981878 7.85502s41.238853 10.800652 58.912648 23.565059l3.338383-7.756832-5.793077-7.756832c0.098188 0-20.324863-10.113338-55.476076-15.906415z" fill="#D5CBC0" p-id="2844"></path><path d="M897.23962 525.991754l-0.981877 7.855019s41.238853 10.800652 58.912647 23.565059l3.338384-7.756832-5.793077-7.756831s-20.423051-10.113338-55.476077-15.906415z" fill="#E5DFD7" p-id="2845"></path><path d="M961.061655 543.960111s-17.673794-21.601304-33.383834-32.401956l-4.909387 5.891265s22.583182 21.601304 34.071148 35.740339l4.222073-9.229648z" fill="#D5CBC0" p-id="2846"></path><path d="M961.061655 542.683671s-17.673794-21.601304-33.383834-32.401957l-4.909387 5.891265s22.583182 21.601304 34.071148 35.74034l4.222073-9.229648z" fill="#E5DFD7" p-id="2847"></path><path d="M1389.160226 408.461022l-8.345958-1.669192c2.552881-22.583182 10.211526-45.460926 10.506089-46.639179l7.462268 2.454694c0 0.294563-7.167705 22.583182-9.622399 45.853677z" fill="#D5CBC0" p-id="2848"></path><path d="M1388.865663 407.871896l-8.345958-1.669192c2.552881-22.583182 10.211526-45.460926 10.506088-46.639179l7.462269 2.454693c0 0.294563-7.167705 22.484994-9.622399 45.853678z" fill="#E5DFD7" p-id="2849"></path><path d="M1387.098284 412.192156l-5.596702-5.498513c13.451721-13.648097 39.766037-20.91399 40.846102-21.208553l2.061943 7.560456c-0.196375 0.098188-25.332438 7.069518-37.311343 19.14661z" fill="#D5CBC0" p-id="2850"></path><path d="M1387.294659 411.504842l-5.596701-5.596701c13.549909-13.549909 39.962413-20.619427 41.042477-20.91399l1.963755 7.560456c-0.196375 0.196375-25.430626 6.873142-37.409531 18.950235z" fill="#E5DFD7" p-id="2851"></path><path d="M1384.250839 412.093969l-8.345958-2.552882c10.89884-28.867197 38.195033-49.388436 39.471473-50.566689l5.203951 5.891265c-0.294563 0.294563-24.350561 20.0303-36.329466 47.228306z" fill="#D5CBC0" p-id="2852"></path><path d="M1383.956276 411.112091l-8.345959-2.651069c11.193403-28.670822 38.587784-48.995685 39.962413-50.173938l5.105763 5.989453c-0.294563 0.196375-24.546936 19.637549-36.722217 46.835554z" fill="#E5DFD7" p-id="2853"></path><path d="M1278.109886 466.391792s-8.247771-23.466871-25.528814-58.028958c-16.790105 34.562086-25.627002 58.028958-25.627002 58.028958-0.785502 2.552881-1.276441 5.302138-1.27644 8.149583 0 14.82635 11.978905 26.805255 26.805254 26.805255 14.82635 0 26.805255-11.978905 26.805255-26.805255 0.098188-2.847445-0.392751-5.596702-1.178253-8.149583z" fill="#FFFFFF" p-id="2854"></path><path d="M512.343657 199.812063v612.004219H340.220539V344.638987l-76.193691 151.503692h37.704095v133.142583H62.643782l181.156391-429.473199h268.543484z" fill="#F1F2F3" p-id="2855"></path><path d="M2283.356026 199.812063v612.004219h-172.123118V344.638987l-76.19369 151.503692h37.704094v133.142583h-238.988973L2014.812542 199.812063h268.543484z" fill="#F1F2F3" p-id="2856"></path></svg>